<svg xmlns="http://www.w3.org/2000/svg" viewBox="0 0 512 512">
  <rect width="512" height="512" rx="96" fill="#f6f7f8"/>
  <rect x="78" y="78" width="356" height="356" rx="48" fill="#ffffff" stroke="#d7dce1" stroke-width="6"/>
  <path d="M256 126c71.8 0 130 58.2 130 130s-58.2 130-130 130-130-58.2-130-130 58.2-130 130-130Z" fill="none" stroke="#111827" stroke-width="12"/>
  <path d="M256 170c47.5 0 86 38.5 86 86s-38.5 86-86 86-86-38.5-86-86 38.5-86 86-86Z" fill="none" stroke="#111827" stroke-width="8" opacity=".28"/>
  <circle cx="256" cy="256" r="32" fill="#111827"/>
  <circle cx="256" cy="126" r="18" fill="#4b5966"/>
  <circle cx="361" cy="332" r="18" fill="#9b6f5f"/>
  <circle cx="151" cy="332" r="18" fill="#d6cec1"/>
</svg>
